<svg width="24" height="25" viewBox="0 0 24 25" fill="none" xmlns="http://www.w3.org/2000/svg">
<g id="bluesky">
<path id="Vector" d="M12 11.8881C11.094 10.1271 8.628 6.8441 6.335 5.2261C4.138 3.6761 3.301 3.9431 2.752 4.1931C2.116 4.4781 2 5.4551 2 6.0281C2 6.6031 2.315 10.7371 2.52 11.4281C3.2 13.7081 5.614 14.4781 7.84 14.2311C4.58 14.7141 1.683 15.9011 5.48 20.1291C9.658 24.4541 11.206 19.2021 12 16.5391C12.794 19.2021 13.708 24.2651 18.444 20.1291C22 16.5391 19.421 14.7141 16.161 14.2311C18.386 14.4781 20.801 13.7081 21.48 11.4281C21.685 10.7381 22 6.6031 22 6.0291C22 5.4541 21.884 4.4791 21.248 4.1911C20.699 3.9431 19.862 3.6741 17.665 5.2241C15.372 6.8451 12.905 10.1281 12 11.8881Z" fill="white"/>
</g>
</svg>
