<svg fill="none" height="89" viewBox="0 0 258 89" width="258" xmlns="http://www.w3.org/2000/svg"><g fill="#fff"><path d="m.365601 79.1065 6.267609 9.2375 45.31199-34.7216v-6.5005z"/><path d="m51.9452 79.1065-.0002 9.2375-51.579237-32.0949-.000164-9.2417 25.789801 16.0495z"/><path d="m87.9635 10.093c2.5632 0 5.1264.3615 7.6896 1.0844 2.5632.723 4.8959 1.9717 6.9999 3.7462 2.103 1.7745 3.779 4.272 5.027 7.4924 1.249 3.1546 1.873 7.1637 1.873 12.0271 0 3.8777-.361 7.2295-1.084 10.0556-.657 2.826-1.61 5.192-2.859 7.098-1.183 1.9059-2.563 3.4175-4.14 4.5348l8.478 22.97h-11.6331l-6.8023-19.421c-.3944.0657-.7887.0986-1.1831.0986-.3943 0-.7886 0-1.183 0-.3943 0-.7886 0-1.183 0h-10.5485v19.3224h-10.9428v-69.0085zm-4.0419 39.3348c2.5632 0 4.7649-.1643 6.6051-.4929 1.8403-.3286 3.3519-.9858 4.5349-1.9717 1.183-1.0515 2.0374-2.5631 2.5632-4.5348.5915-1.9717.8872-4.6334.8872-7.9853 0-3.0889-.2957-5.5206-.8872-7.2951-.5258-1.8403-1.3802-3.1876-2.5632-4.042-1.183-.9201-2.6946-1.5116-4.5349-1.7745-1.8402-.2629-4.0419-.3943-6.6051-.3943h-6.5066v28.4906z"/><path d="m157.749 60.7649c0 4.2063-.888 7.7553-2.662 10.647-1.775 2.8918-4.206 5.0935-7.295 6.6051-3.089 1.4459-6.671 2.1689-10.746 2.1689s-7.69-.723-10.844-2.1689c-3.155-1.5116-5.62-3.7133-7.394-6.6051-1.775-2.8917-2.662-6.4407-2.662-10.647v-50.6719h10.943v48.7988c0 2.1689.361 4.0091 1.084 5.5207.789 1.5116 1.906 2.6618 3.352 3.4504 1.446.7887 3.254 1.183 5.422 1.183 2.104 0 3.878-.4272 5.324-1.2815 1.446-.9202 2.563-2.136 3.352-3.6476.788-1.5774 1.183-3.3847 1.183-5.4221v-48.6017h10.943z"/><path d="m186.23 10.093c3.812 0 7.131.6901 9.957 2.0703 2.892 1.3801 5.127 3.3847 6.704 6.0136 1.577 2.5631 2.366 5.6849 2.366 9.3654 0 2.0374-.263 3.9105-.789 5.6193-.46 1.7087-1.183 3.2532-2.169 4.6334-.985 1.3801-2.201 2.596-3.647 3.6476 1.972.8544 3.713 2.0702 5.225 3.6476 1.577 1.5773 2.793 3.5161 3.647 5.8164.921 2.2345 1.381 4.8634 1.381 7.8867 0 4.0747-.822 7.6566-2.465 10.7456-1.643 3.0232-4.042 5.3892-7.197 7.098-3.089 1.643-6.933 2.4646-11.534 2.4646h-21.688v-69.0085zm-4.535 28.1949c2.564 0 4.634-.2629 6.211-.7887 1.643-.5915 2.826-1.5444 3.549-2.8589.789-1.3802 1.183-3.2204 1.183-5.5207 0-2.0374-.361-3.6476-1.084-4.8306s-1.84-2.0373-3.352-2.5631c-1.446-.5258-3.286-.7887-5.521-.7887h-5.718v17.3507zm3.155 30.758c1.643 0 3.352-.2628 5.126-.7886 1.775-.5915 3.287-1.6431 4.535-3.1547 1.249-1.5116 1.873-3.6804 1.873-6.5065 0-2.2346-.46-4.0748-1.38-5.5207s-2.3-2.5303-4.14-3.2532c-1.841-.723-4.174-1.0845-7-1.0845h-6.901v20.3082z"/><path d="m257.337 63.6239c0 5.192-1.15 9.2668-3.45 12.2243-2.301 2.8918-6.145 4.6006-11.535 5.1263h-29.111l3.7-9.0696c1.051-.1315 23.998.3943 24.918 0 .921-.3944 1.709-.953 2.366-1.676.658-.7886 1.184-1.7745 1.578-2.9575s.591-2.6617.591-4.4362v-7.1966c-1.183.9201-2.431 1.6759-3.746 2.2674-1.249.5258-2.563.8873-3.943 1.0844-1.38.1972-2.826.2958-4.338.2958-4.14 0-7.821-.8544-11.041-2.5632-3.155-1.7088-5.62-4.1076-7.394-7.1966-1.775-3.1547-2.662-6.9008-2.662-11.2385v-28.1949h10.943v27.3076c0 2.5632.427 4.7649 1.282 6.6051.854 1.7745 2.135 3.1218 3.844 4.042 1.775.9201 4.009 1.3801 6.704 1.3801 1.38 0 2.695-.2629 3.943-.7886 1.249-.5915 2.334-1.3473 3.254-2.2675.985-.9858 1.741-2.1031 2.267-3.3518.592-1.2487.887-2.5632.887-3.9433v-28.9836h10.943z"/></g><path clip-rule="evenodd" d="m5.65327 18.1061 20.51733-18.0899867 20.5173 18.0899867 5.3208 19.9283-24.858 14.62c-.605.3559-1.3552.3559-1.9602 0l-24.857973-14.62zm7.03443 4.7042 12.7631-11.2243.0005 17.7119 12.8869 7.5173-11.657 10.2942-15.7483-12.6864z" fill="#ff460b" fill-rule="evenodd"/></svg>