<svg width="24" height="25" viewBox="0 0 24 25" fill="none" xmlns="http://www.w3.org/2000/svg">
<g id="mastodon">
<path id="Vector" d="M20.94 14.5C20.66 15.91 18.5 17.46 15.97 17.76C14.66 17.91 13.37 18.06 12 18C9.74998 17.89 7.99998 17.46 7.99998 17.46V18.08C8.31998 20.3 10.22 20.43 12.03 20.5C13.85 20.55 15.47 20.04 15.47 20.04L15.55 21.69C15.55 21.69 14.27 22.37 12 22.5C10.75 22.57 9.18998 22.47 7.37998 22C3.45998 20.95 2.77998 16.76 2.67998 12.5L2.66998 9.07C2.66998 4.73 5.49998 3.46 5.49998 3.46C6.94998 2.8 9.40998 2.5 11.97 2.5H12.03C14.59 2.5 17.05 2.8 18.5 3.46C18.5 3.46 21.33 4.73 21.33 9.07C21.33 9.07 21.37 12.28 20.94 14.5ZM18 9.41C18 8.33 17.7 7.5 17.15 6.85C16.59 6.22 15.85 5.89 14.92 5.89C13.86 5.89 13.05 6.3 12.5 7.12L12 8L11.5 7.12C10.94 6.3 10.14 5.89 9.06998 5.89C8.14998 5.89 7.40998 6.22 6.83998 6.85C6.28998 7.5 5.99998 8.33 5.99998 9.41V14.67H8.09998V9.56C8.09998 8.5 8.54998 7.94 9.45998 7.94C10.46 7.94 10.96 8.59 10.96 9.87V12.66H13.03V9.87C13.03 8.59 13.53 7.94 14.54 7.94C15.44 7.94 15.89 8.5 15.89 9.56V14.67H18V9.41Z" fill="white"/>
</g>
</svg>
